<?xml version="1.0" standalone="no"?>
<!DOCTYPE svg PUBLIC "-//W3C//DTD SVG 20010904//EN"
 "http://www.w3.org/TR/2001/REC-SVG-20010904/DTD/svg10.dtd">
<svg version="1.0" xmlns="http://www.w3.org/2000/svg"
 width="512.000000pt" height="512.000000pt" viewBox="0 0 512.000000 512.000000"
 preserveAspectRatio="xMidYMid meet">

<g transform="translate(0.000000,512.000000) scale(0.100000,-0.100000)"
fill="#5e72e4" stroke="none">
<path d="M1685 3856 l-25 -25 2 -463 3 -463 58 -3 57 -3 0 431 0 430 805 0
805 0 0 -60 0 -60 60 0 60 0 0 98 c0 69 -4 104 -14 118 -14 19 -36 19 -900 22
l-887 2 -24 -24z"/>
<path d="M2837 3492 c-16 -17 -17 -120 -19 -1223 l-3 -1204 -260 0 -260 0 -3
839 c-1 600 -5 843 -13 853 -9 11 -112 13 -554 13 -512 0 -543 -1 -558 -18
-16 -17 -17 -91 -17 -855 l0 -837 -65 0 -65 0 0 -35 c0 -25 8 -44 25 -60 l24
-25 1486 0 1486 0 24 25 c17 16 25 35 25 60 l0 35 -65 0 -65 0 0 1205 c0 1192
0 1205 -20 1225 -20 20 -33 20 -553 20 -504 0 -535 -1 -550 -18z m1003 -1267
l0 -1165 -165 0 -165 0 0 134 c0 109 -3 138 -16 150 -23 24 -385 24 -408 0
-13 -12 -16 -41 -16 -150 l0 -134 -65 0 -65 0 0 250 0 250 318 0 318 0 -1 55
0 55 -317 0 -318 0 0 95 0 95 317 2 318 3 0 55 0 55 -318 3 -317 2 0 95 0 95
318 0 317 0 0 55 0 55 -317 0 -318 0 0 100 0 100 318 0 317 0 1 55 0 55 -318
0 -318 0 0 95 0 95 319 0 318 0 -2 58 -3 57 -316 3 -316 2 0 95 0 95 318 0
318 0 -1 55 0 55 -317 0 -318 0 0 95 0 95 450 0 450 0 0 -1165z m-1670 -365
l0 -800 -65 0 -65 0 0 102 c0 149 25 138 -316 138 -244 0 -285 -2 -298 -16
-13 -12 -16 -38 -16 -120 l0 -104 -70 0 -70 0 0 793 c0 437 3 797 7 800 3 4
206 7 450 7 l443 0 0 -800z m1220 -705 l0 -95 -100 0 -100 0 0 95 0 95 100 0
100 0 0 -95z m-1470 -30 l0 -65 -195 0 -195 0 0 65 0 65 195 0 195 0 0 -65z"/>
<path d="M1410 1980 l0 -550 60 0 60 0 0 550 0 550 -60 0 -60 0 0 -550z"/>
<path d="M1662 1983 l3 -548 58 -3 57 -3 0 551 0 550 -60 0 -60 0 2 -547z"/>
<path d="M1920 1980 l0 -550 60 0 60 0 0 550 0 550 -60 0 -60 0 0 -550z"/>
</g>
</svg>
