<?xml version="1.0" standalone="no"?>
<!DOCTYPE svg PUBLIC "-//W3C//DTD SVG 20010904//EN"
 "http://www.w3.org/TR/2001/REC-SVG-20010904/DTD/svg10.dtd">
<svg version="1.0" xmlns="http://www.w3.org/2000/svg"
 width="474.000000pt" height="474.000000pt" viewBox="0 0 474.000000 474.000000"
 preserveAspectRatio="xMidYMid meet">

<g transform="translate(0.000000,474.000000) scale(0.100000,-0.100000)"
fill="#6d69e4" stroke="none">
<path d="M344 4506 c-17 -8 -34 -21 -38 -31 -3 -9 -6 -93 -6 -186 0 -219 -8
-209 165 -209 l125 0 0 -1700 c0 -935 1 -1703 3 -1707 1 -5 -58 -10 -131 -13
-168 -6 -162 0 -162 -167 l0 -123 -84 0 c-69 0 -88 -4 -110 -21 -33 -26 -36
-77 -5 -105 21 -19 70 -19 2121 -19 l2100 0 24 28 c31 36 30 62 -2 92 -24 22
-36 25 -110 25 l-84 0 0 44 c0 42 1 44 34 50 87 17 196 93 254 179 91 134 101
294 28 443 -33 66 -35 74 -29 141 7 86 -21 190 -67 247 -25 33 -28 41 -18 60
21 38 15 155 -11 213 -100 224 -423 231 -529 11 -29 -59 -38 -133 -22 -196 11
-49 11 -52 -17 -94 -53 -77 -65 -123 -62 -228 3 -78 0 -100 -15 -122 -29 -44
-55 -123 -62 -190 -13 -127 37 -262 133 -355 60 -59 93 -79 173 -104 54 -16
55 -17 58 -58 l3 -41 -370 0 -371 0 0 188 0 188 54 17 c68 22 163 83 204 133
48 57 91 150 103 223 15 84 -2 182 -46 267 -31 60 -33 67 -28 142 7 94 -12
168 -58 231 -31 43 -31 44 -19 106 27 142 -34 260 -170 331 -53 27 -170 25
-235 -4 -128 -59 -192 -185 -165 -327 12 -62 12 -63 -19 -105 -47 -65 -64
-128 -60 -228 4 -82 2 -91 -29 -153 -44 -88 -59 -178 -44 -259 32 -175 153
-312 320 -361 41 -12 42 -13 42 -56 0 -23 -2 -43 -5 -43 -2 0 -32 18 -66 40
-72 47 -91 49 -124 15 -50 -49 -29 -85 94 -165 l101 -65 0 -57 0 -58 -150 0
-150 0 0 124 c0 169 4 165 -162 167 l-128 2 0 1709 0 1708 125 0 c173 0 165
-10 165 214 0 156 -2 176 -19 197 l-19 24 -1199 2 c-992 2 -1203 0 -1229 -11z
m2316 -211 l0 -75 -1105 0 -1105 0 0 75 0 75 1105 0 1105 0 0 -75z m-290
-1925 l0 -1711 -222 3 -223 3 -5 428 c-5 410 -6 429 -24 443 -29 21 -653 21
-682 0 -18 -14 -19 -33 -24 -443 l-5 -428 -222 -3 -223 -3 0 1711 0 1710 815
0 815 0 0 -1710z m874 -314 c69 -29 105 -123 71 -188 -9 -18 -21 -48 -25 -66
-8 -31 -4 -38 41 -88 28 -31 54 -67 59 -80 14 -35 12 -115 -2 -168 -12 -44
-11 -47 25 -98 43 -63 67 -126 67 -177 0 -105 -70 -219 -162 -265 l-53 -27 -3
124 c-2 105 -5 127 -20 141 -30 27 -74 30 -102 8 -24 -19 -25 -27 -30 -146
l-5 -127 -52 26 c-90 45 -149 133 -160 240 -7 65 13 128 63 201 38 55 39 60
15 149 -19 73 -2 120 75 207 38 43 41 51 34 82 -4 19 -15 44 -24 57 -23 34
-20 99 7 140 41 61 113 83 181 55z m891 -299 c81 -39 103 -113 61 -202 -32
-66 -29 -80 25 -136 69 -71 79 -121 54 -262 -6 -31 -3 -43 17 -70 56 -72 72
-118 72 -197 -1 -90 -17 -132 -75 -195 -40 -43 -103 -85 -129 -85 -6 0 -10 42
-10 114 0 99 -3 117 -21 140 -26 33 -73 35 -106 4 -22 -20 -23 -29 -23 -140 0
-88 -3 -118 -12 -118 -34 0 -120 63 -153 112 -72 108 -72 220 0 333 49 75 50
80 34 122 -17 43 -13 135 6 174 10 19 35 53 56 76 44 48 48 72 19 128 -24 47
-26 95 -4 141 19 41 33 53 81 69 38 14 70 11 108 -8z m-2366 -366 c7 -13 11
-144 11 -370 l0 -351 -224 0 -224 0 -1 361 c-1 199 1 365 4 369 3 5 99 9 215
10 198 1 209 0 219 -19z m891 -946 l0 -75 -1105 0 -1105 0 0 75 0 75 1105 0
1105 0 0 -75z"/>
<path d="M915 3825 l-25 -24 0 -246 0 -246 25 -24 24 -25 244 0 c226 0 247 1
268 19 24 19 24 20 27 270 l3 251 -25 25 -25 25 -246 0 -246 0 -24 -25z m415
-270 l0 -145 -145 0 -145 0 0 145 0 145 145 0 145 0 0 -145z"/>
<path d="M1654 3825 l-25 -25 3 -251 c3 -250 3 -251 27 -270 21 -18 42 -19
266 -19 224 0 245 1 266 19 24 19 24 20 27 270 l3 251 -25 25 -25 25 -246 0
-246 0 -25 -25z m416 -270 l0 -145 -145 0 -145 0 0 145 0 145 145 0 145 0 0
-145z"/>
<path d="M915 3085 l-25 -24 0 -246 0 -246 25 -24 24 -25 246 0 246 0 24 25
25 24 0 246 0 246 -25 24 -24 25 -246 0 -246 0 -24 -25z m415 -270 l0 -145
-145 0 -145 0 0 145 0 145 145 0 145 0 0 -145z"/>
<path d="M1656 3085 l-26 -24 0 -246 0 -246 25 -24 24 -25 246 0 246 0 24 25
25 24 0 246 0 246 -25 24 -24 25 -244 0 -244 0 -27 -25z m414 -270 l0 -145
-145 0 -145 0 0 145 0 145 145 0 145 0 0 -145z"/>
<path d="M915 2345 l-25 -24 0 -246 0 -246 25 -24 24 -25 246 0 246 0 24 25
25 24 0 246 0 246 -26 24 -27 25 -244 0 -244 0 -24 -25z m415 -270 l0 -145
-145 0 -145 0 0 145 0 145 145 0 145 0 0 -145z"/>
<path d="M1659 2351 l-24 -19 0 -257 0 -257 24 -19 c21 -18 42 -19 268 -19
l244 0 24 25 25 24 0 244 c0 226 -1 247 -19 268 -19 24 -20 24 -268 27 -235 3
-251 2 -274 -17z m411 -276 l0 -145 -145 0 -145 0 0 145 0 145 145 0 145 0 0
-145z"/>
<path d="M3130 1460 c-29 -29 -29 -147 0 -178 28 -30 80 -29 108 1 18 19 22
35 22 90 0 55 -4 70 -22 87 -28 26 -82 26 -108 0z"/>
<path d="M3314 3462 c-58 -20 -123 -69 -143 -104 -9 -17 -30 -30 -72 -42 -202
-61 -272 -317 -130 -479 18 -20 58 -49 89 -64 l57 -28 296 -3 295 -3 55 25
c66 30 88 49 124 106 36 57 45 146 21 217 -22 66 -88 130 -158 153 -47 16 -55
23 -76 67 -66 135 -223 204 -358 155z m173 -152 c37 -22 73 -86 73 -129 0 -44
34 -71 89 -71 121 0 174 -129 83 -200 -23 -19 -41 -20 -306 -20 -314 0 -331 3
-370 70 -55 93 3 211 109 226 77 10 81 13 105 59 13 25 37 54 54 65 41 26 120
27 163 0z"/>
<path d="M4476 349 c-33 -26 -36 -77 -5 -105 16 -14 36 -19 84 -19 76 0 105
20 105 71 0 47 -38 74 -105 74 -38 0 -60 -6 -79 -21z"/>
</g>
</svg>
